<svg xmlns="http://www.w3.org/2000/svg" xmlns:xlink="http://www.w3.org/1999/xlink" version="1.1" width="1000" height="1000" viewBox="0 0 1000 1000" xml:space="preserve">
<desc>Created with Fabric.js 3.5.0</desc>
<defs>

</defs>
<rect x="0" y="0" width="100%" height="100%" fill="#ffffff"/>
<g transform="matrix(28.4091 0 0 28.4091 -690.1839 306.7486)" id="317693">
<g style="" vector-effect="non-scaling-stroke">
		<g transform="matrix(1 0 0 1 -5 0.5)" id="Icons">
<polyline style="stroke: rgb(0,0,0); stroke-width: 2; stroke-dasharray: none; stroke-linecap: round; stroke-dashoffset: 0; stroke-linejoin: round; stroke-miterlimit: 10; is-custom-font: none; font-file-url: none; fill: none; fill-rule: nonzero; opacity: 1;" points="-1,7.5 8,7.5 8,-7.5 -8,-7.5 -8,7.5 -5,7.5 "/>
</g>
		<g transform="matrix(1 0 0 1 8 8)" id="Icons">
<circle style="stroke: rgb(0,0,0); stroke-width: 2; stroke-dasharray: none; stroke-linecap: round; stroke-dashoffset: 0; stroke-linejoin: round; stroke-miterlimit: 10; is-custom-font: none; font-file-url: none; fill: none; fill-rule: nonzero; opacity: 1;" cx="0" cy="0" r="2"/>
</g>
		<g transform="matrix(1 0 0 1 -8 8)" id="Icons">
<circle style="stroke: rgb(0,0,0); stroke-width: 2; stroke-dasharray: none; stroke-linecap: round; stroke-dashoffset: 0; stroke-linejoin: round; stroke-miterlimit: 10; is-custom-font: none; font-file-url: none; fill: none; fill-rule: nonzero; opacity: 1;" cx="0" cy="0" r="2"/>
</g>
		<g transform="matrix(1 0 0 1 8 2.5)" id="Icons">
<polyline style="stroke: rgb(0,0,0); stroke-width: 2; stroke-dasharray: none; stroke-linecap: round; stroke-dashoffset: 0; stroke-linejoin: round; stroke-miterlimit: 10; is-custom-font: none; font-file-url: none; fill: none; fill-rule: nonzero; opacity: 1;" points="-5,5.5 -5,-5.5 1,-5.5 5,-0.5 5,5.5 2,5.5 "/>
</g>
		<g transform="matrix(1 0 0 1 36 -108)" id="Icons">
<rect style="stroke: none; stroke-width: 1; stroke-dasharray: none; stroke-linecap: butt; stroke-dashoffset: 0; stroke-linejoin: miter; stroke-miterlimit: 4; is-custom-font: none; font-file-url: none; fill: none; fill-rule: nonzero; opacity: 1;" x="-268" y="-340" rx="0" ry="0" width="536" height="680"/>
</g>
</g>
</g>
<g transform="matrix(1 0 0 1 500 500)" id="237317">
<g style="" vector-effect="non-scaling-stroke">
		<g transform="matrix(1 0 0 1 -0.05 -0.05)" id="Layer_2">
<path style="stroke: none; stroke-width: 1; stroke-dasharray: none; stroke-linecap: butt; stroke-dashoffset: 0; stroke-linejoin: miter; stroke-miterlimit: 4; is-custom-font: none; font-file-url: none; fill: rgb(0,0,0); fill-rule: nonzero; opacity: 1;" transform=" translate(-255.95, -255.95)" d="M 399.6 221.9 c -1.4 -2 -3.7 -3.2 -6.1 -3.2 h -54.2 V 195 c 0 -4.1 -3.4 -7.5 -7.5 -7.5 H 193.6 c -5.2 -24.9 -27.3 -43.7 -53.7 -43.7 c -30.3 0 -54.9 24.6 -54.9 54.9 c 0 27.4 20.2 50.2 46.5 54.2 v 80.6 c 0 4.1 3.4 7.5 7.5 7.5 h 25.1 c 4.1 15.6 18.2 27.1 35 27.1 s 31 -11.5 35 -27.1 h 96.7 c 4.1 15.6 18.2 27.1 35 27.1 s 31 -11.5 35 -27.1 h 18.6 c 4.1 0 7.5 -3.4 7.5 -7.5 v -70.7 c 0 -1.6 -0.5 -3.1 -1.4 -4.3 L 399.6 221.9 z M 412 265.3 v 1.2 h -40.8 v -32.8 h 18.4 L 412 265.3 z M 100 198.7 c 0 -22 17.9 -39.9 39.9 -39.9 s 39.9 17.9 39.9 39.9 s -17.9 39.9 -39.9 39.9 S 100 220.7 100 198.7 z M 146.6 253.2 c 25.9 -3.2 46.2 -24.4 48 -50.6 h 129.7 v 123.6 h -89.4 c -2.8 -17.2 -17.8 -30.3 -35.7 -30.3 s -32.9 13.1 -35.7 30.3 h -16.9 V 253.2 z M 199.2 353.1 c -11.7 0 -21.2 -9.5 -21.2 -21.2 s 9.5 -21.2 21.2 -21.2 s 21.2 9.5 21.2 21.2 S 210.8 353.1 199.2 353.1 z M 365.9 353.1 c -11.7 0 -21.2 -9.5 -21.2 -21.2 s 9.5 -21.2 21.2 -21.2 s 21.2 9.5 21.2 21.2 S 377.6 353.1 365.9 353.1 z M 401.6 326.1 c -2.8 -17.2 -17.8 -30.3 -35.7 -30.3 c -10.5 0 -20 4.5 -26.6 11.7 v -73.7 h 16.9 V 274 c 0 4.1 3.4 7.5 7.5 7.5 H 412 v 44.5 H 401.6 z" stroke-linecap="round"/>
</g>
		<g transform="matrix(1 0 0 1 -116.1 -57.3)" id="Layer_2">
<path style="stroke: none; stroke-width: 1; stroke-dasharray: none; stroke-linecap: butt; stroke-dashoffset: 0; stroke-linejoin: miter; stroke-miterlimit: 4; is-custom-font: none; font-file-url: none; fill: rgb(0,0,0); fill-rule: nonzero; opacity: 1;" transform=" translate(-139.9, -198.7)" d="M 147.4 215.9 v -9.7 h 9.7 c 4.1 0 7.5 -3.4 7.5 -7.5 s -3.4 -7.5 -7.5 -7.5 h -9.7 v -9.7 c 0 -4.1 -3.4 -7.5 -7.5 -7.5 s -7.5 3.4 -7.5 7.5 v 9.7 h -9.7 c -4.1 0 -7.5 3.4 -7.5 7.5 s 3.4 7.5 7.5 7.5 h 9.7 v 9.7 c 0 4.1 3.4 7.5 7.5 7.5 S 147.4 220.1 147.4 215.9 z" stroke-linecap="round"/>
</g>
</g>
</g>
<g transform="matrix(1 0 0 1 500 500)" id="748092">
<g style="" vector-effect="non-scaling-stroke">
		<g transform="matrix(1 0 0 1 -0.05 -0.05)" id="Layer_2">
<path style="stroke: none; stroke-width: 1; stroke-dasharray: none; stroke-linecap: butt; stroke-dashoffset: 0; stroke-linejoin: miter; stroke-miterlimit: 4; is-custom-font: none; font-file-url: none; fill: rgb(0,0,0); fill-rule: nonzero; opacity: 1;" transform=" translate(-255.95, -255.95)" d="M 399.6 221.9 c -1.4 -2 -3.7 -3.2 -6.1 -3.2 h -54.2 V 195 c 0 -4.1 -3.4 -7.5 -7.5 -7.5 H 193.6 c -5.2 -24.9 -27.3 -43.7 -53.7 -43.7 c -30.3 0 -54.9 24.6 -54.9 54.9 c 0 27.4 20.2 50.2 46.5 54.2 v 80.6 c 0 4.1 3.4 7.5 7.5 7.5 h 25.1 c 4.1 15.6 18.2 27.1 35 27.1 s 31 -11.5 35 -27.1 h 96.7 c 4.1 15.6 18.2 27.1 35 27.1 s 31 -11.5 35 -27.1 h 18.6 c 4.1 0 7.5 -3.4 7.5 -7.5 v -70.7 c 0 -1.6 -0.5 -3.1 -1.4 -4.3 L 399.6 221.9 z M 412 265.3 v 1.2 h -40.8 v -32.8 h 18.4 L 412 265.3 z M 100 198.7 c 0 -22 17.9 -39.9 39.9 -39.9 s 39.9 17.9 39.9 39.9 s -17.9 39.9 -39.9 39.9 S 100 220.7 100 198.7 z M 146.6 253.2 c 25.9 -3.2 46.2 -24.4 48 -50.6 h 129.7 v 123.6 h -89.4 c -2.8 -17.2 -17.8 -30.3 -35.7 -30.3 s -32.9 13.1 -35.7 30.3 h -16.9 V 253.2 z M 199.2 353.1 c -11.7 0 -21.2 -9.5 -21.2 -21.2 s 9.5 -21.2 21.2 -21.2 s 21.2 9.5 21.2 21.2 S 210.8 353.1 199.2 353.1 z M 365.9 353.1 c -11.7 0 -21.2 -9.5 -21.2 -21.2 s 9.5 -21.2 21.2 -21.2 s 21.2 9.5 21.2 21.2 S 377.6 353.1 365.9 353.1 z M 401.6 326.1 c -2.8 -17.2 -17.8 -30.3 -35.7 -30.3 c -10.5 0 -20 4.5 -26.6 11.7 v -73.7 h 16.9 V 274 c 0 4.1 3.4 7.5 7.5 7.5 H 412 v 44.5 H 401.6 z" stroke-linecap="round"/>
</g>
		<g transform="matrix(1 0 0 1 -116.1 -57.3)" id="Layer_2">
<path style="stroke: none; stroke-width: 1; stroke-dasharray: none; stroke-linecap: butt; stroke-dashoffset: 0; stroke-linejoin: miter; stroke-miterlimit: 4; is-custom-font: none; font-file-url: none; fill: rgb(0,0,0); fill-rule: nonzero; opacity: 1;" transform=" translate(-139.9, -198.7)" d="M 147.4 215.9 v -9.7 h 9.7 c 4.1 0 7.5 -3.4 7.5 -7.5 s -3.4 -7.5 -7.5 -7.5 h -9.7 v -9.7 c 0 -4.1 -3.4 -7.5 -7.5 -7.5 s -7.5 3.4 -7.5 7.5 v 9.7 h -9.7 c -4.1 0 -7.5 3.4 -7.5 7.5 s 3.4 7.5 7.5 7.5 h 9.7 v 9.7 c 0 4.1 3.4 7.5 7.5 7.5 S 147.4 220.1 147.4 215.9 z" stroke-linecap="round"/>
</g>
</g>
</g>
<g transform="matrix(1 0 0 1 500 500)" id="748548">
<g style="" vector-effect="non-scaling-stroke">
		<g transform="matrix(1 0 0 1 -0.05 -0.05)" id="Layer_2">
<path style="stroke: none; stroke-width: 1; stroke-dasharray: none; stroke-linecap: butt; stroke-dashoffset: 0; stroke-linejoin: miter; stroke-miterlimit: 4; is-custom-font: none; font-file-url: none; fill: rgb(0,0,0); fill-rule: nonzero; opacity: 1;" transform=" translate(-255.95, -255.95)" d="M 399.6 221.9 c -1.4 -2 -3.7 -3.2 -6.1 -3.2 h -54.2 V 195 c 0 -4.1 -3.4 -7.5 -7.5 -7.5 H 193.6 c -5.2 -24.9 -27.3 -43.7 -53.7 -43.7 c -30.3 0 -54.9 24.6 -54.9 54.9 c 0 27.4 20.2 50.2 46.5 54.2 v 80.6 c 0 4.1 3.4 7.5 7.5 7.5 h 25.1 c 4.1 15.6 18.2 27.1 35 27.1 s 31 -11.5 35 -27.1 h 96.7 c 4.1 15.6 18.2 27.1 35 27.1 s 31 -11.5 35 -27.1 h 18.6 c 4.1 0 7.5 -3.4 7.5 -7.5 v -70.7 c 0 -1.6 -0.5 -3.1 -1.4 -4.3 L 399.6 221.9 z M 412 265.3 v 1.2 h -40.8 v -32.8 h 18.4 L 412 265.3 z M 100 198.7 c 0 -22 17.9 -39.9 39.9 -39.9 s 39.9 17.9 39.9 39.9 s -17.9 39.9 -39.9 39.9 S 100 220.7 100 198.7 z M 146.6 253.2 c 25.9 -3.2 46.2 -24.4 48 -50.6 h 129.7 v 123.6 h -89.4 c -2.8 -17.2 -17.8 -30.3 -35.7 -30.3 s -32.9 13.1 -35.7 30.3 h -16.9 V 253.2 z M 199.2 353.1 c -11.7 0 -21.2 -9.5 -21.2 -21.2 s 9.5 -21.2 21.2 -21.2 s 21.2 9.5 21.2 21.2 S 210.8 353.1 199.2 353.1 z M 365.9 353.1 c -11.7 0 -21.2 -9.5 -21.2 -21.2 s 9.5 -21.2 21.2 -21.2 s 21.2 9.5 21.2 21.2 S 377.6 353.1 365.9 353.1 z M 401.6 326.1 c -2.8 -17.2 -17.8 -30.3 -35.7 -30.3 c -10.5 0 -20 4.5 -26.6 11.7 v -73.7 h 16.9 V 274 c 0 4.1 3.4 7.5 7.5 7.5 H 412 v 44.5 H 401.6 z" stroke-linecap="round"/>
</g>
		<g transform="matrix(1 0 0 1 -116.1 -57.3)" id="Layer_2">
<path style="stroke: none; stroke-width: 1; stroke-dasharray: none; stroke-linecap: butt; stroke-dashoffset: 0; stroke-linejoin: miter; stroke-miterlimit: 4; is-custom-font: none; font-file-url: none; fill: rgb(0,0,0); fill-rule: nonzero; opacity: 1;" transform=" translate(-139.9, -198.7)" d="M 147.4 215.9 v -9.7 h 9.7 c 4.1 0 7.5 -3.4 7.5 -7.5 s -3.4 -7.5 -7.5 -7.5 h -9.7 v -9.7 c 0 -4.1 -3.4 -7.5 -7.5 -7.5 s -7.5 3.4 -7.5 7.5 v 9.7 h -9.7 c -4.1 0 -7.5 3.4 -7.5 7.5 s 3.4 7.5 7.5 7.5 h 9.7 v 9.7 c 0 4.1 3.4 7.5 7.5 7.5 S 147.4 220.1 147.4 215.9 z" stroke-linecap="round"/>
</g>
</g>
</g>
<g transform="matrix(1 0 0 1 500 500)" id="394355">
<g style="" vector-effect="non-scaling-stroke">
		<g transform="matrix(1 0 0 1 -0.05 -0.05)" id="Layer_2">
<path style="stroke: none; stroke-width: 1; stroke-dasharray: none; stroke-linecap: butt; stroke-dashoffset: 0; stroke-linejoin: miter; stroke-miterlimit: 4; is-custom-font: none; font-file-url: none; fill: rgb(0,0,0); fill-rule: nonzero; opacity: 1;" transform=" translate(-255.95, -255.95)" d="M 399.6 221.9 c -1.4 -2 -3.7 -3.2 -6.1 -3.2 h -54.2 V 195 c 0 -4.1 -3.4 -7.5 -7.5 -7.5 H 193.6 c -5.2 -24.9 -27.3 -43.7 -53.7 -43.7 c -30.3 0 -54.9 24.6 -54.9 54.9 c 0 27.4 20.2 50.2 46.5 54.2 v 80.6 c 0 4.1 3.4 7.5 7.5 7.5 h 25.1 c 4.1 15.6 18.2 27.1 35 27.1 s 31 -11.5 35 -27.1 h 96.7 c 4.1 15.6 18.2 27.1 35 27.1 s 31 -11.5 35 -27.1 h 18.6 c 4.1 0 7.5 -3.4 7.5 -7.5 v -70.7 c 0 -1.6 -0.5 -3.1 -1.4 -4.3 L 399.6 221.9 z M 412 265.3 v 1.2 h -40.8 v -32.8 h 18.4 L 412 265.3 z M 100 198.7 c 0 -22 17.9 -39.9 39.9 -39.9 s 39.9 17.9 39.9 39.9 s -17.9 39.9 -39.9 39.9 S 100 220.7 100 198.7 z M 146.6 253.2 c 25.9 -3.2 46.2 -24.4 48 -50.6 h 129.7 v 123.6 h -89.4 c -2.8 -17.2 -17.8 -30.3 -35.7 -30.3 s -32.9 13.1 -35.7 30.3 h -16.9 V 253.2 z M 199.2 353.1 c -11.7 0 -21.2 -9.5 -21.2 -21.2 s 9.5 -21.2 21.2 -21.2 s 21.2 9.5 21.2 21.2 S 210.8 353.1 199.2 353.1 z M 365.9 353.1 c -11.7 0 -21.2 -9.5 -21.2 -21.2 s 9.5 -21.2 21.2 -21.2 s 21.2 9.5 21.2 21.2 S 377.6 353.1 365.9 353.1 z M 401.6 326.1 c -2.8 -17.2 -17.8 -30.3 -35.7 -30.3 c -10.5 0 -20 4.5 -26.6 11.7 v -73.7 h 16.9 V 274 c 0 4.1 3.4 7.5 7.5 7.5 H 412 v 44.5 H 401.6 z" stroke-linecap="round"/>
</g>
		<g transform="matrix(1 0 0 1 -116.1 -57.3)" id="Layer_2">
<path style="stroke: none; stroke-width: 1; stroke-dasharray: none; stroke-linecap: butt; stroke-dashoffset: 0; stroke-linejoin: miter; stroke-miterlimit: 4; is-custom-font: none; font-file-url: none; fill: rgb(0,0,0); fill-rule: nonzero; opacity: 1;" transform=" translate(-139.9, -198.7)" d="M 147.4 215.9 v -9.7 h 9.7 c 4.1 0 7.5 -3.4 7.5 -7.5 s -3.4 -7.5 -7.5 -7.5 h -9.7 v -9.7 c 0 -4.1 -3.4 -7.5 -7.5 -7.5 s -7.5 3.4 -7.5 7.5 v 9.7 h -9.7 c -4.1 0 -7.5 3.4 -7.5 7.5 s 3.4 7.5 7.5 7.5 h 9.7 v 9.7 c 0 4.1 3.4 7.5 7.5 7.5 S 147.4 220.1 147.4 215.9 z" stroke-linecap="round"/>
</g>
</g>
</g>
<g transform="matrix(1 0 0 1 500 500)" id="141330">
<g style="" vector-effect="non-scaling-stroke">
		<g transform="matrix(1 0 0 1 -0.05 -0.05)" id="Layer_2">
<path style="stroke: none; stroke-width: 1; stroke-dasharray: none; stroke-linecap: butt; stroke-dashoffset: 0; stroke-linejoin: miter; stroke-miterlimit: 4; is-custom-font: none; font-file-url: none; fill: rgb(0,0,0); fill-rule: nonzero; opacity: 1;" transform=" translate(-255.95, -255.95)" d="M 399.6 221.9 c -1.4 -2 -3.7 -3.2 -6.1 -3.2 h -54.2 V 195 c 0 -4.1 -3.4 -7.5 -7.5 -7.5 H 193.6 c -5.2 -24.9 -27.3 -43.7 -53.7 -43.7 c -30.3 0 -54.9 24.6 -54.9 54.9 c 0 27.4 20.2 50.2 46.5 54.2 v 80.6 c 0 4.1 3.4 7.5 7.5 7.5 h 25.1 c 4.1 15.6 18.2 27.1 35 27.1 s 31 -11.5 35 -27.1 h 96.7 c 4.1 15.6 18.2 27.1 35 27.1 s 31 -11.5 35 -27.1 h 18.6 c 4.1 0 7.5 -3.4 7.5 -7.5 v -70.7 c 0 -1.6 -0.5 -3.1 -1.4 -4.3 L 399.6 221.9 z M 412 265.3 v 1.2 h -40.8 v -32.8 h 18.4 L 412 265.3 z M 100 198.7 c 0 -22 17.9 -39.9 39.9 -39.9 s 39.9 17.9 39.9 39.9 s -17.9 39.9 -39.9 39.9 S 100 220.7 100 198.7 z M 146.6 253.2 c 25.9 -3.2 46.2 -24.4 48 -50.6 h 129.7 v 123.6 h -89.4 c -2.8 -17.2 -17.8 -30.3 -35.7 -30.3 s -32.9 13.1 -35.7 30.3 h -16.9 V 253.2 z M 199.2 353.1 c -11.7 0 -21.2 -9.5 -21.2 -21.2 s 9.5 -21.2 21.2 -21.2 s 21.2 9.5 21.2 21.2 S 210.8 353.1 199.2 353.1 z M 365.9 353.1 c -11.7 0 -21.2 -9.5 -21.2 -21.2 s 9.5 -21.2 21.2 -21.2 s 21.2 9.5 21.2 21.2 S 377.6 353.1 365.9 353.1 z M 401.6 326.1 c -2.8 -17.2 -17.8 -30.3 -35.7 -30.3 c -10.5 0 -20 4.5 -26.6 11.7 v -73.7 h 16.9 V 274 c 0 4.1 3.4 7.5 7.5 7.5 H 412 v 44.5 H 401.6 z" stroke-linecap="round"/>
</g>
		<g transform="matrix(1 0 0 1 -116.1 -57.3)" id="Layer_2">
<path style="stroke: none; stroke-width: 1; stroke-dasharray: none; stroke-linecap: butt; stroke-dashoffset: 0; stroke-linejoin: miter; stroke-miterlimit: 4; is-custom-font: none; font-file-url: none; fill: rgb(0,0,0); fill-rule: nonzero; opacity: 1;" transform=" translate(-139.9, -198.7)" d="M 147.4 215.9 v -9.7 h 9.7 c 4.1 0 7.5 -3.4 7.5 -7.5 s -3.4 -7.5 -7.5 -7.5 h -9.7 v -9.7 c 0 -4.1 -3.4 -7.5 -7.5 -7.5 s -7.5 3.4 -7.5 7.5 v 9.7 h -9.7 c -4.1 0 -7.5 3.4 -7.5 7.5 s 3.4 7.5 7.5 7.5 h 9.7 v 9.7 c 0 4.1 3.4 7.5 7.5 7.5 S 147.4 220.1 147.4 215.9 z" stroke-linecap="round"/>
</g>
</g>
</g>
</svg>