<?xml version="1.0" encoding="iso-8859-1"?>
<!-- Uploaded to: SVG Repo, www.svgrepo.com, Generator: SVG Repo Mixer Tools -->
<svg height="800px" width="800px" version="1.1" id="Layer_1" xmlns="http://www.w3.org/2000/svg" xmlns:xlink="http://www.w3.org/1999/xlink" 
	 viewBox="0 0 511.999 511.999" xml:space="preserve">
<polygon style="fill:#CFF09E;" points="27.959,164.583 27.959,160.534 172.263,14.827 172.263,164.583 "/>
<g>
	<path style="fill:#507C5C;" d="M459.183,264.152c-5.594-5.981-14.976-6.295-20.956-0.703c-5.981,5.593-6.295,14.976-0.703,20.956
		c20.435,21.854,31.69,50.378,31.69,80.317c0,64.859-52.766,117.623-117.623,117.623s-117.623-52.766-117.623-117.623
		s52.766-117.623,117.623-117.623c8.189,0,14.827-6.638,14.827-14.827c0-8.189-6.638-14.827-14.827-14.827
		c-81.208,0-147.276,66.068-147.276,147.276c0,14.953,2.246,29.389,6.408,42.997H42.786v-167.54c0-8.189-6.638-14.827-14.827-14.827
		s-14.827,6.638-14.827,14.827v182.366c0,8.189,6.638,14.827,14.827,14.827h195.559c25.359,44.53,73.265,74.626,128.072,74.626
		c81.208,0,147.276-66.068,147.276-147.276C498.866,327.236,484.773,291.519,459.183,264.152z"/>
	<path style="fill:#507C5C;" d="M394.598,0H172.263c-0.178,0-0.353,0.021-0.529,0.027c-0.172,0.006-0.344,0.013-0.516,0.025
		c-0.636,0.044-1.269,0.117-1.889,0.242c-0.021,0.004-0.04,0.012-0.061,0.015c-0.608,0.126-1.202,0.299-1.787,0.5
		c-0.159,0.053-0.314,0.111-0.471,0.171c-0.577,0.219-1.143,0.463-1.689,0.752c-0.024,0.013-0.049,0.022-0.073,0.034
		c-0.565,0.304-1.103,0.657-1.626,1.033c-0.135,0.098-0.268,0.197-0.4,0.299c-0.519,0.4-1.025,0.824-1.49,1.296L17.428,150.099
		c-0.348,0.351-0.676,0.719-0.984,1.1c-0.212,0.261-0.399,0.534-0.59,0.805c-0.086,0.123-0.182,0.239-0.264,0.363
		c-0.219,0.331-0.414,0.673-0.603,1.017c-0.042,0.076-0.09,0.147-0.13,0.222c-0.187,0.353-0.35,0.713-0.506,1.078
		c-0.033,0.077-0.073,0.151-0.105,0.23c-0.141,0.345-0.259,0.697-0.374,1.048c-0.034,0.107-0.077,0.211-0.11,0.317
		c-0.096,0.325-0.172,0.654-0.246,0.984c-0.033,0.142-0.073,0.28-0.101,0.424c-0.059,0.304-0.096,0.609-0.136,0.915
		c-0.022,0.173-0.056,0.344-0.073,0.519c-0.028,0.302-0.034,0.605-0.044,0.907c-0.006,0.168-0.025,0.334-0.025,0.501v4.051
		c0,8.189,6.638,14.827,14.827,14.827h144.304c8.189,0,14.827-6.638,14.827-14.827V29.653h192.683v143.315
		c0,8.189,6.638,14.827,14.827,14.827c8.189,0,14.827-6.638,14.827-14.827V14.827C409.425,6.638,402.787,0,394.598,0z
		 M59.498,149.757l91.096-91.982l6.842-6.908v98.89H59.498z"/>
</g>
<polygon style="fill:#CFF09E;" points="374.672,444.029 374.672,386.323 432.379,386.323 432.379,340.158 374.672,340.158 
	374.672,282.451 328.508,282.451 328.508,340.158 270.8,340.158 270.8,386.323 328.508,386.323 328.508,444.029 "/>
<path style="fill:#507C5C;" d="M374.673,458.856h-46.165c-8.189,0-14.827-6.638-14.827-14.827v-42.88h-42.88
	c-8.189,0-14.827-6.638-14.827-14.827v-46.165c0-8.189,6.638-14.827,14.827-14.827h42.88v-42.88c0-8.189,6.638-14.827,14.827-14.827
	h46.165c8.189,0,14.827,6.638,14.827,14.827v42.88h42.88c8.189,0,14.827,6.638,14.827,14.827v46.165
	c0,8.189-6.638,14.827-14.827,14.827H389.5v42.88C389.5,452.218,382.862,458.856,374.673,458.856z M343.333,429.203h16.512v-42.88
	c0-8.189,6.638-14.827,14.827-14.827h42.88v-16.512h-42.88c-8.189,0-14.827-6.638-14.827-14.827v-42.88h-16.512v42.88
	c0,8.189-6.638,14.827-14.827,14.827h-42.88v16.512h42.88c8.189,0,14.827,6.638,14.827,14.827V429.203z"/>
</svg>